<svg xmlns="http://www.w3.org/2000/svg" xmlns:xlink="http://www.w3.org/1999/xlink" width="185" height="60" viewBox="0 0 185 60">
  <defs>
    <clipPath id="clip-azakaw_1">
      <rect width="185" height="60"/>
    </clipPath>
  </defs>
  <g id="azakaw_1" data-name="azakaw – 1" clip-path="url(#clip-azakaw_1)">
    <g id="Group_1393" data-name="Group 1393" transform="translate(11 297.005)">
      <rect id="Rectangle_1" data-name="Rectangle 1" width="185" height="60" transform="translate(-11 -297)" fill="none"/>
      <g id="azakaw-2" style="isolation: isolate">
        <g id="Group_1392" data-name="Group 1392" style="isolation: isolate">
          <path id="Path_721" data-name="Path 721" d="M13.25-258.742v9.211a2.507,2.507,0,0,1-2.49,2.491,2.559,2.559,0,0,1-2.444-2.021,10.674,10.674,0,0,1-6.251,2.021,10.916,10.916,0,0,1-7.989-3.431,12.028,12.028,0,0,1-3.2-8.271,11.86,11.86,0,0,1,3.2-8.272,10.82,10.82,0,0,1,7.989-3.524,10.72,10.72,0,0,1,6.251,2.067,2.552,2.552,0,0,1,2.444-2.067A2.516,2.516,0,0,1,13.25-268Zm-4.981,0a6.911,6.911,0,0,0-1.833-4.841,5.81,5.81,0,0,0-4.371-1.927,5.667,5.667,0,0,0-4.371,1.927,6.882,6.882,0,0,0-1.785,4.841A7.05,7.05,0,0,0-2.306-253.9a5.923,5.923,0,0,0,4.371,1.833A6.079,6.079,0,0,0,6.436-253.9,7.084,7.084,0,0,0,8.269-258.742Z" fill="#fff"/>
          <path id="Path_722" data-name="Path 722" d="M34.306-266.591l-10.621,14.57h8.648a2.507,2.507,0,0,1,2.49,2.49,2.539,2.539,0,0,1-2.49,2.491H18.75a1.763,1.763,0,0,1-.47-.047h-.141a.668.668,0,0,0-.282-.094c-.094-.047-.141-.047-.188-.094-.047,0-.141-.094-.188-.094-.046-.094-.094-.094-.094-.141-.047,0-.047,0-.047-.047-.047,0-.094-.047-.141-.094a1.875,1.875,0,0,0-.188-.141,1.324,1.324,0,0,0-.188-.235.667.667,0,0,0-.14-.188c-.1-.047-.1-.094-.1-.188a.217.217,0,0,1-.141-.235c-.047,0-.047-.093-.093-.235,0-.047-.047-.141-.047-.188v-.329a.169.169,0,0,1-.048-.141v-.047c0-.094.048-.234.048-.329v-.188c.047-.047.047-.14.093-.235a1.966,1.966,0,0,1,.047-.234c.047,0,.141-.142.141-.142,0-.094.1-.188.141-.234h.047l10.575-14.617h-8.6a2.508,2.508,0,0,1-2.491-2.491,2.539,2.539,0,0,1,2.491-2.49H32.333c.093,0,.188.047.281.047h.236c.093.047.187.047.234.094a2.075,2.075,0,0,1,.235.046c.047.047.094.141.141.141.094,0,.188.1.282.142a.046.046,0,0,1,.047.047.1.1,0,0,1,.094.093,1.047,1.047,0,0,1,.235.236c.047,0,.094.093.141.14a.689.689,0,0,0,.141.189c.047.047.047.093.141.093,0,.141.094.188.094.283a.349.349,0,0,1,.047.234c.047.094.047.189.094.235v.283c0,.047.047.14.047.187V-268a.629.629,0,0,0-.047.235.514.514,0,0,1-.047.283.51.51,0,0,1-.047.234.258.258,0,0,1-.141.235v.141c-.094.095-.141.188-.235.235Z" fill="#fff"/>
          <path id="Path_723" data-name="Path 723" d="M58.98-258.742v9.211a2.507,2.507,0,0,1-2.49,2.491,2.559,2.559,0,0,1-2.444-2.021,10.674,10.674,0,0,1-6.251,2.021,10.917,10.917,0,0,1-7.989-3.431,12.028,12.028,0,0,1-3.2-8.271,11.86,11.86,0,0,1,3.2-8.272,10.822,10.822,0,0,1,7.989-3.524,10.72,10.72,0,0,1,6.251,2.067,2.552,2.552,0,0,1,2.444-2.067A2.516,2.516,0,0,1,58.98-268Zm-4.981,0a6.911,6.911,0,0,0-1.833-4.841,5.81,5.81,0,0,0-4.371-1.927,5.669,5.669,0,0,0-4.371,1.927,6.882,6.882,0,0,0-1.785,4.841,7.05,7.05,0,0,0,1.785,4.841,5.925,5.925,0,0,0,4.371,1.833,6.079,6.079,0,0,0,4.371-1.833A7.084,7.084,0,0,0,54-258.742Z" fill="#fff"/>
          <path id="Path_724" data-name="Path 724" d="M63.493-249.625v-27.729a2.577,2.577,0,0,1,2.585-2.584,2.617,2.617,0,0,1,2.631,2.584v16.262l9.635-9.635a2.64,2.64,0,0,1,3.666,0,2.556,2.556,0,0,1,0,3.666l-7.05,7.05,7.238,8.695a2.605,2.605,0,0,1-.376,3.665,2.47,2.47,0,0,1-1.645.611,2.5,2.5,0,0,1-1.974-.939l-6.909-8.367-2.585,2.585v4.136a2.617,2.617,0,0,1-2.631,2.585A2.577,2.577,0,0,1,63.493-249.625Z" fill="#fff"/>
          <path id="Path_725" data-name="Path 725" d="M104.523-258.742v9.211a2.508,2.508,0,0,1-2.491,2.491,2.559,2.559,0,0,1-2.444-2.021,10.669,10.669,0,0,1-6.25,2.021,10.918,10.918,0,0,1-7.99-3.431,12.028,12.028,0,0,1-3.2-8.271,11.86,11.86,0,0,1,3.2-8.272,10.823,10.823,0,0,1,7.99-3.524,10.714,10.714,0,0,1,6.25,2.067,2.553,2.553,0,0,1,2.444-2.067A2.517,2.517,0,0,1,104.523-268Zm-4.982,0a6.915,6.915,0,0,0-1.832-4.841,5.813,5.813,0,0,0-4.371-1.927,5.667,5.667,0,0,0-4.371,1.927,6.882,6.882,0,0,0-1.786,4.841,7.051,7.051,0,0,0,1.786,4.841,5.923,5.923,0,0,0,4.371,1.833,6.082,6.082,0,0,0,4.371-1.833A7.088,7.088,0,0,0,99.541-258.742Z" fill="#fff"/>
          <path id="Path_726" data-name="Path 726" d="M138.314-266.778l-7.753,18.234a2.771,2.771,0,0,1-.188.376.047.047,0,0,1-.048.047,1.22,1.22,0,0,1-.235.282.146.146,0,0,1-.094.047,1.242,1.242,0,0,1-.281.235c0,.047-.047.047-.047.094a1.237,1.237,0,0,1-.424.235.046.046,0,0,0-.047.047,1.472,1.472,0,0,0-.376.094h-.093a1.455,1.455,0,0,1-.47.047,1.31,1.31,0,0,1-.424-.047h-.094a.675.675,0,0,0-.328-.094l-.047-.047h-.048a1.107,1.107,0,0,1-.422-.282v-.047c-.141-.047-.188-.141-.282-.235,0,0-.094,0-.094-.047a1.253,1.253,0,0,1-.236-.282.046.046,0,0,1-.047-.047,2.868,2.868,0,0,1-.187-.376l-3.431-8.131-3.337,8.131a4.1,4.1,0,0,1-.235.376v.047l-.282.282a.046.046,0,0,1-.047.047l-.281.282a1.652,1.652,0,0,1-.424.282h-.094a.046.046,0,0,0-.047.047.5.5,0,0,0-.281.094H117.5a1.763,1.763,0,0,1-.47.047,1.452,1.452,0,0,1-.47-.047h-.141a.664.664,0,0,0-.281-.094c-.047-.047-.047-.047-.1-.047a.845.845,0,0,1-.423-.282c-.047,0-.047,0-.047-.047a1.743,1.743,0,0,0-.282-.235l-.094-.047c-.046-.094-.141-.188-.188-.282-.047,0-.047,0-.047-.047a2.718,2.718,0,0,0-.234-.376l-7.708-18.234a2.431,2.431,0,0,1,1.363-3.243,2.333,2.333,0,0,1,3.1,1.41l5.546,12.641,3.289-7.848a2.51,2.51,0,0,1,2.3-1.5,2.414,2.414,0,0,1,2.3,1.5l3.337,7.848,5.545-12.641a2.354,2.354,0,0,1,3.149-1.41A2.467,2.467,0,0,1,138.314-266.778Z" fill="#fff"/>
        </g>
      </g>
      <path id="Path_537" data-name="Path 537" d="M172.793-296.745c.073.1.149.19.222.288a2.073,2.073,0,0,1-.257,1.528c-.85,1.59-17.973,33.478-18.37,34.153a1.017,1.017,0,0,1-1.319.576c-.022-.008-.044-.018-.066-.028-.073-.1-.148-.193-.223-.286a7.889,7.889,0,0,1-.458-2.379c-.061-1.453-.355-8.767-.423-10.97a15.408,15.408,0,0,0-.746-4.735,4.759,4.759,0,0,0-1.36-2.006,11.216,11.216,0,0,0-3.848-2.024c-1.193-.406-2.4-.755-3.6-1.133-1.8-.567-8.955-2.648-10.519-3.662l-.3-.383a.778.778,0,0,1,.53-.935,10.8,10.8,0,0,1,1.487-.419c3.191-.671,34.555-7.142,37.332-7.708a2.478,2.478,0,0,1,1.918.124" fill="#e53764" fill-rule="evenodd"/>
    </g>
  </g>
</svg>
