<svg xmlns="http://www.w3.org/2000/svg" xmlns:xlink="http://www.w3.org/1999/xlink" width="42" height="38" viewBox="0 0 42 38">
  <defs>
    <clipPath id="clip-icon">
      <rect width="42" height="38"/>
    </clipPath>
  </defs>
  <g id="icon" clip-path="url(#clip-icon)">
    <g id="Group_1358" data-name="Group 1358" transform="translate(-229.509 -38)">
      <path id="Path_537" data-name="Path 537" d="M464.955,46.892c.073.1.149.19.222.288a2.071,2.071,0,0,1-.257,1.528c-.85,1.59-17.973,33.478-18.37,34.153a1.018,1.018,0,0,1-1.385.548q-.11-.146-.223-.286a7.887,7.887,0,0,1-.458-2.379c-.061-1.453-.355-8.767-.423-10.97a15.4,15.4,0,0,0-.746-4.735,4.766,4.766,0,0,0-1.36-2.006,11.223,11.223,0,0,0-3.848-2.024c-1.193-.406-2.4-.755-3.6-1.133-1.8-.567-8.955-2.648-10.519-3.662-.1-.127-.2-.256-.3-.383a.778.778,0,0,1,.53-.935,10.9,10.9,0,0,1,1.487-.419c3.191-.671,34.555-7.142,37.332-7.708a2.479,2.479,0,0,1,1.918.124" transform="translate(-194.162 -8.637)" fill="#e53764" fill-rule="evenodd"/>
    </g>
  </g>
</svg>
